# xmcd CD database file
#
# Track frame offsets:
#	150
#	12859
#	26183
#	43212
#	61802
#	78124
#	92292
#	106076
#	120831
#	135741
#	151780
#	166485
#	184834
#	200881
#	214296
#	231304
#	246515
#	264276
#	280367
#	294855
#
# Disc length: 4156 seconds
#
# Revision: 0
# Processed by: cddbd v1.4PL0 Copyright (c) Steve Scherf et al.
# Submitted via: CDex 1.50
#
DISCID=13103a14
DTITLE=Various Artist - Top Country Hits FEB 1997
DYEAR=1997
DGENRE=Country
TTITLE0=Mark Chesnutt_It's A Little Too Late
TTITLE1=Patty Loveless_She Drew A Broken Heart
TTITLE2=Clint Black_Half Way Up
TTITLE3=Faith Hill_I Can't Do That Any More
TTITLE4=Brooks and Dunn_A Man This Lonely
TTITLE5=Trisha Yearwood_Everybody Knows
TTITLE6=Rick Trevino_Running Out Of Reasons To Run
TTITLE7=Diamond Rio_Holdin'
TTITLE8=Deanna Carter_We Danced Anyway
TTITLE9=Travis Tritt_Where Corn Don't Grow
TTITLE10=Toby Keith_Me Too
TTITLE11=Mindy McCready_Maybe He'll Notice Her Now
TTITLE12=Daryle Singletary_Amen Kind Of Love
TTITLE13=Mary Chapin Carpenter_Let Me Into Your Heart
TTITLE14=John Berry_She's Taken A Shine
TTITLE15=Vince Gill_Pretty Little Adriana
TTITLE16=LeAnn Rimes_Unchained Melody
TTITLE17=George Strait_King Of The Mountain
TTITLE18=Bryan White_That's Another Song
TTITLE19=Reba McEntire_How Was I To Know
EXTD=YEAR: 1997
EXTT0=
EXTT1=
EXTT2=
EXTT3=
EXTT4=
EXTT5=
EXTT6=
EXTT7=
EXTT8=
EXTT9=
EXTT10=
EXTT11=
EXTT12=
EXTT13=
EXTT14=
EXTT15=
EXTT16=
EXTT17=
EXTT18=
EXTT19=
PLAYORDER=
